<svg xmlns="http://www.w3.org/2000/svg" width="60" height="60" fill-rule="nonzero" xmlns:v="https://vecta.io/nano"><path fill="#000" d="M30 60c24 0 30-6 30-30S54 0 30 0 0 6 0 30s6 30 30 30z"/><path d="M40.313 19.688v26.25h5.625V14.063H14.063v5.625zm-15.235 26.72c-6.343 0-11.484-5.142-11.484-11.484S18.736 23.44 25.078 23.44s11.484 5.142 11.484 11.484-5.142 11.484-11.484 11.484zm0-5.625a5.86 5.86 0 0 0 5.859-5.859 5.86 5.86 0 0 0-5.859-5.859 5.86 5.86 0 0 0-5.859 5.859 5.86 5.86 0 0 0 5.859 5.859z" fill="#fff"/></svg>