<svg xmlns="http://www.w3.org/2000/svg" xmlns:xlink="http://www.w3.org/1999/xlink" width="60" height="60" xmlns:v="https://vecta.io/nano"><defs><path id="A" d="M32.83 43.125l-1.087-3.038-1.087-3.075h-10.95l-1.07 3.094-1.07 3.02h-4.913l2.775-7.687L18 28.763l2.494-6 2.55-5.625h4.463l2.55 5.625 2.494 6 2.588 6.675 2.794 7.688h-5.1zm-7.65-20.962L23.213 27l-2.306 6.188h8.55l-2.325-6.225-1.95-4.8zm19.463 20.963h-4.537V23.513h4.537v19.613zm.488-25.35c0 .85-.275 1.525-.825 2.025a2.8 2.8 0 0 1-1.95.75 2.85 2.85 0 0 1-1.988-.75c-.55-.5-.825-1.175-.825-2.025 0-.875.275-1.562.825-2.062a2.85 2.85 0 0 1 1.988-.75 2.8 2.8 0 0 1 1.95.75c.55.5.825 1.187.825 2.062z"/></defs><g fill-rule="evenodd"><path fill="#f47301" fill-rule="nonzero" d="M3.75 3.75v52.5h52.5V3.75H3.75zM0 0h60v60H0V0z"/><mask id="B" fill="#fff"><use xlink:href="#A"/></mask><use fill="#fff" xlink:href="#A"/><path fill="#f47301" mask="url(#B)" d="M0 0h60v60H0z"/></g></svg>