<svg xmlns="http://www.w3.org/2000/svg" width="475" height="228" fill="#fff" fill-rule="evenodd" opacity=".3" xmlns:v="https://vecta.io/nano"><path d="M167.936 12.96c0 7.04 6.912 12.8 15.36 12.8h154.112c8.448 0 15.36-5.76 15.36-12.8S345.856.16 337.408.16H183.296c-8.448 0-15.36 5.76-15.36 12.8M425.984 61.6c0 7.04 6.912 12.8 15.36 12.8h17.4c8.447 0 15.36-5.76 15.36-12.8s-6.912-12.8-15.36-12.8h-17.4c-8.448 0-15.36 5.76-15.36 12.8M123.392 12.96c0 7.04 5.76 12.8 12.8 12.8s12.8-5.76 12.8-12.8-5.76-12.8-12.8-12.8-12.8 5.76-12.8 12.8M43.008 112.8c0 7.04 6.912 12.8 15.36 12.8h17.4c8.448 0 15.36-5.76 15.36-12.8S84.224 100 75.776 100h-17.4c-8.447 0-15.36 5.76-15.36 12.8M15.36 202.4h122.88c8.448 0 15.36-5.76 15.36-12.8s-6.912-12.8-15.36-12.8h-6.655c-8.45 0-15.36-5.76-15.36-12.8s6.912-12.8 15.36-12.8h83.456c8.447 0 15.36-5.76 15.36-12.8s-6.912-12.8-15.36-12.8H114.688c-8.448 0-15.36-5.76-15.36-12.8s6.9-12.8 15.36-12.8h130.048c8.448 0 15.36-5.76 15.36-12.8s-6.912-12.8-15.36-12.8h-107.52c-8.448 0-15.36-5.76-15.36-12.8s6.912-12.8 15.36-12.8h261.12c8.447 0 15.36 5.76 15.36 12.8s-6.912 12.8-15.36 12.8h-97.792c-8.45 0-15.36 5.76-15.36 12.8s6.912 12.8 15.36 12.8h36.863c8.448 0 15.36 5.76 15.36 12.8s-6.912 12.8-15.36 12.8h.513c-8.45 0-15.36 5.76-15.36 12.8s6.912 12.8 15.36 12.8h116.223c8.448 0 15.36 5.76 15.36 12.8s-6.913 12.8-15.36 12.8H252.928c-8.448 0-15.36 5.76-15.36 12.8s6.912 12.8 15.36 12.8h23.552c8.448 0 15.36 5.76 15.36 12.8s-6.912 12.8-15.36 12.8H15.36C6.913 228 0 222.24 0 215.2s6.912-12.8 15.36-12.8"/></svg>