<svg xmlns="http://www.w3.org/2000/svg" width="380" height="184" fill="#fff" fill-rule="evenodd" opacity=".3" xmlns:v="https://vecta.io/nano"><path d="M134.76 172.977c0-5.633 5.53-10.24 12.288-10.24h123.3c6.76 0 12.288 4.607 12.288 10.24s-5.53 10.24-12.288 10.24h-123.3c-6.76 0-12.288-4.607-12.288-10.24m206.44-38.912c0-5.633 5.53-10.24 12.288-10.24h13.926c6.76 0 12.288 4.607 12.288 10.24s-5.53 10.24-12.288 10.24h-13.926c-6.76 0-12.288-4.607-12.288-10.24M99.124 172.977c0-5.633 4.608-10.24 10.24-10.24s10.24 4.607 10.24 10.24-4.608 10.24-10.24 10.24-10.24-4.607-10.24-10.24M34.818 93.104c0-5.633 5.53-10.24 12.288-10.24h13.926c6.76 0 12.288 4.607 12.288 10.24s-5.53 10.24-12.288 10.24H47.106c-6.76 0-12.288-4.607-12.288-10.24M12.7 21.424h98.304c6.76 0 12.288 4.608 12.288 10.24s-5.53 10.24-12.288 10.24h-5.325c-6.758 0-12.3 4.608-12.3 10.24s5.53 10.24 12.3 10.24h66.764c6.76 0 12.288 4.608 12.288 10.24s-5.53 10.24-12.288 10.24h-80.28c-6.758 0-12.288 4.608-12.288 10.24s5.53 10.24 12.288 10.24H196.2c6.76 0 12.288 4.608 12.288 10.24s-5.53 10.24-12.288 10.24h-86.016c-6.758 0-12.288 4.608-12.288 10.24s5.53 10.24 12.288 10.24H319.08c6.758 0 12.287-4.608 12.287-10.24s-5.53-10.24-12.287-10.24h-78.234c-6.758 0-12.3-4.608-12.3-10.24s5.53-10.24 12.3-10.24h29.5c6.76 0 12.288-4.607 12.288-10.24s-5.53-10.24-12.288-10.24h.4c-6.76 0-12.288-4.608-12.288-10.24s5.53-10.24 12.288-10.24h92.978c6.76 0 12.288-4.607 12.288-10.24s-5.53-10.24-12.288-10.24h-160.96c-6.758 0-12.288-4.608-12.288-10.24s5.53-10.24 12.288-10.24h18.842c6.758 0 12.288-4.607 12.288-10.24S228.354.945 221.596.945H12.7C5.94.945.412 5.552.412 11.184s5.53 10.24 12.288 10.24"/></svg>