<svg xmlns="http://www.w3.org/2000/svg" width="149" height="150" xmlns:v="https://vecta.io/nano"><defs><linearGradient id="A" x1="0%" y1="0%" y2="95.386%"><stop offset="0%" stop-color="#072142"/><stop offset="52.417%" stop-color="#8c2b7a"/><stop offset="100%" stop-color="#ff4d5a"/></linearGradient></defs><path fill="url(#A)" fill-rule="evenodd" d="M149 39.945v97.364c0 6.883-5.57 12.483-12.417 12.483H12.417C5.57 149.79 0 144.192 0 137.31V39.945c0-1.378 1.113-2.497 2.483-2.497s2.483 1.118 2.483 2.497v97.364c0 4.13 3.343 7.5 7.45 7.5h59.6v-5.87c-3.03-1.276-10.788-4.117-19.867-4.117-21.71 0-38.882 4.848-39.053 4.896-.223.065-.452.097-.68.097-.534 0-1.06-.172-1.497-.504a2.51 2.51 0 0 1-.986-1.992V27.463c0-1.113.735-2.095 1.8-2.4.725-.2 17.977-5.1 40.416-5.1 12.856 0 23.033 5.043 23.46 5.255a2.5 2.5 0 0 1 1.373 2.234v95.524c7.567-4.33 25.265-13.998 42.217-19.92V6.148c-18.26 7.382-35.75 18.322-35.934 18.44-1.165.73-2.697.374-3.422-.794s-.373-2.71.8-3.44c.2-.125 20.306-12.702 40.175-20.194a2.47 2.47 0 0 1 2.287.287 2.5 2.5 0 0 1 1.07 2.052v102.357c0 1.076-.683 2.027-1.7 2.37-21.838 7.317-46.443 22.092-46.69 22.24a2.47 2.47 0 0 1-2.503.032 2.5 2.5 0 0 1-1.259-2.172V29.08c-3.047-1.28-10.812-4.114-19.867-4.114-17.644 0-32.29 3.203-37.25 4.43v104.7c6.054-1.44 20.145-4.277 37.25-4.277 10.688 0 19.524 3.485 22.447 4.783 3.288-1.21 13.917-4.783 24.736-4.783 16.643 0 29.14 2.69 34.767 4.172v-104.5l-3.15-.607c-1.348-.25-2.24-1.55-1.992-2.908s1.547-2.252 2.89-2.002l5.275 1.05a2.49 2.49 0 0 1 1.944 2.437V137.31a2.5 2.5 0 0 1-1.031 2.025c-.653.47-1.488.594-2.235.345-.147-.05-14.835-4.866-36.468-4.866-9.298 0-18.73 2.968-22.35 4.242v5.744h59.6c4.107 0 7.45-3.36 7.45-7.5V39.945a2.49 2.49 0 0 1 2.483-2.497A2.49 2.49 0 0 1 149 39.945h0zM60.166 46.33c-15.335-3.617-32.76.99-33.493 1.188a2.5 2.5 0 0 0-1.756 3.058c.298 1.116 1.3 1.85 2.396 1.85a2.51 2.51 0 0 0 .646-.085c.166-.047 16.944-4.484 31.074-1.15a2.49 2.49 0 0 0 2.985-1.862c.313-1.34-.517-2.684-1.853-2.998h0zm0 14.98c-15.335-3.615-32.76.99-33.493 1.188a2.5 2.5 0 0 0-1.756 3.058c.298 1.116 1.3 1.85 2.396 1.85a2.51 2.51 0 0 0 .646-.085c.166-.047 16.944-4.484 31.074-1.15a2.49 2.49 0 0 0 2.985-1.862c.313-1.34-.517-2.684-1.853-2.998h0zm0 14.98c-15.335-3.615-32.76.99-33.493 1.188a2.5 2.5 0 0 0-1.756 3.058 2.49 2.49 0 0 0 2.396 1.852 2.51 2.51 0 0 0 .646-.087c.166-.047 16.944-4.484 31.074-1.15a2.49 2.49 0 0 0 2.985-1.862c.313-1.34-.517-2.684-1.853-2.998h0zm0 14.98c-15.335-3.617-32.76.99-33.493 1.188a2.5 2.5 0 0 0-1.756 3.058 2.49 2.49 0 0 0 2.396 1.852 2.51 2.51 0 0 0 .646-.087c.166-.047 16.944-4.484 31.074-1.15a2.49 2.49 0 0 0 2.985-1.862c.313-1.34-.517-2.684-1.853-2.998h0zm0 14.98c-15.335-3.617-32.76.99-33.493 1.188a2.5 2.5 0 0 0-1.756 3.058 2.49 2.49 0 0 0 2.396 1.852 2.51 2.51 0 0 0 .646-.087c.166-.047 16.944-4.484 31.074-1.15a2.49 2.49 0 0 0 2.985-1.862c.313-1.34-.517-2.684-1.853-2.998h0zm24.535-5.253a2.49 2.49 0 0 0 2.218 1.363c.377 0 .765-.087 1.125-.272.147-.075 14.763-7.54 21.973-9.83a2.5 2.5 0 0 0 1.617-3.133 2.48 2.48 0 0 0-3.117-1.63c-7.594 2.414-22.112 9.83-22.727 10.143-1.222.624-1.71 2.127-1.088 3.358h0zm0-14.98a2.49 2.49 0 0 0 2.218 1.363c.377 0 .765-.087 1.125-.272.147-.075 14.763-7.54 21.973-9.83a2.5 2.5 0 0 0 1.617-3.133 2.48 2.48 0 0 0-3.117-1.63c-7.594 2.414-22.112 9.83-22.727 10.143-1.222.624-1.71 2.127-1.088 3.358h0zm0-14.98a2.49 2.49 0 0 0 2.218 1.363c.377 0 .765-.087 1.125-.272.147-.075 14.763-7.54 21.973-9.83a2.5 2.5 0 0 0 1.617-3.133 2.48 2.48 0 0 0-3.117-1.63c-7.594 2.414-22.112 9.83-22.727 10.143-1.222.624-1.71 2.127-1.088 3.358h0zm0-14.98a2.49 2.49 0 0 0 2.218 1.363c.377 0 .765-.087 1.125-.272.147-.075 14.763-7.54 21.973-9.83a2.5 2.5 0 0 0 1.617-3.133 2.48 2.48 0 0 0-3.117-1.63c-7.594 2.414-22.112 9.83-22.727 10.143-1.222.624-1.71 2.127-1.088 3.358h0zm2.218-13.616c.377 0 .765-.087 1.125-.272.147-.075 14.763-7.54 21.973-9.83a2.5 2.5 0 0 0 1.617-3.133 2.48 2.48 0 0 0-3.117-1.63c-7.594 2.414-22.112 9.83-22.727 10.143-1.222.624-1.71 2.127-1.088 3.358a2.49 2.49 0 0 0 2.218 1.363h0z"/></svg>