<svg xmlns="http://www.w3.org/2000/svg" width="482" height="231" fill="#072142" fill-rule="evenodd" xmlns:v="https://vecta.io/nano"><path d="M60.076 51.2c-7.04 0-12.8 5.76-12.8 12.8s5.76 12.8 12.8 12.8 12.8-5.76 12.8-12.8-5.76-12.8-12.8-12.8m353.92 153.6h-121.54c-8.448 0-15.36-5.76-15.36-12.8s6.912-12.8 15.36-12.8h2.5c8.447 0 15.36-5.76 15.36-12.8s-6.912-12.8-15.36-12.8h-60.1c-8.448 0-15.36-5.76-15.36-12.8s6.912-12.8 15.36-12.8h110.66c8.448 0 15.36-5.76 15.36-12.8s-6.912-12.8-15.36-12.8H221.034c-8.448 0-15.36-5.76-15.36-12.8s6.912-12.8 15.36-12.8h62.402c8.45 0 15.36-5.76 15.36-12.8s-6.912-12.8-15.36-12.8h.702c-8.448 0-15.36-5.76-15.36-12.8s6.912-12.8 15.36-12.8h81.218c8.45 0 15.36-5.76 15.36-12.8S373.805 0 365.356 0h-183.68c-8.45 0-15.36 5.76-15.36 12.8s6.912 12.8 15.36 12.8h46.653c8.448 0 15.36 5.76 15.36 12.8s-6.912 12.8-15.36 12.8H106.156c-8.447 0-15.36 5.76-15.36 12.8s6.912 12.8 15.36 12.8h.2c8.448 0 15.36 5.76 15.36 12.8s-6.912 12.8-15.36 12.8h-90.47c-8.448 0-15.36 5.76-15.36 12.8S7.43 128 15.877 128H179.05c8.448 0 15.36 5.76 15.36 12.8s-6.912 12.8-15.36 12.8h-3.774c-8.447 0-15.36 5.76-15.36 12.8s6.912 12.8 15.36 12.8h61.374c8.448 0 15.36 5.76 15.36 12.8s-6.912 12.8-15.36 12.8H115.917c-8.448 0-15.36 5.76-15.36 12.8s6.912 12.8 15.36 12.8h298.08c8.447 0 15.36-5.76 15.36-12.8s-6.912-12.8-15.36-12.8m52.48 0h-12.16c-8.448 0-15.36 5.76-15.36 12.8s6.912 12.8 15.36 12.8h12.16c8.448 0 15.36-5.76 15.36-12.8s-6.912-12.8-15.36-12.8m-143.36-38.4c0 7.04 6.912 12.8 15.36 12.8h53.12c8.45 0 15.36-5.76 15.36-12.8s-6.912-12.8-15.36-12.8h-53.12c-8.448 0-15.36 5.76-15.36 12.8"/></svg>