<svg xmlns="http://www.w3.org/2000/svg" width="475" height="229" fill="#072142" fill-rule="evenodd" xmlns:v="https://vecta.io/nano"><path d="M48.128 167.18c0-7.04-6.912-12.8-15.36-12.8H15.36c-8.447 0-15.36 5.76-15.36 12.8s6.912 12.8 15.36 12.8h17.4c8.448 0 15.36-5.76 15.36-12.8m302.592 48.64c0-7.04-5.76-12.8-12.8-12.8s-12.8 5.76-12.8 12.8 5.76 12.8 12.8 12.8 12.8-5.76 12.8-12.8m80.384-99.84c0-7.04-6.912-12.8-15.36-12.8h-17.4c-8.448 0-15.36 5.76-15.36 12.8s6.912 12.8 15.36 12.8h17.4c8.447 0 15.36-5.76 15.36-12.8m27.646-89.6h-122.88c-8.448 0-15.36 5.76-15.36 12.8s6.912 12.8 15.36 12.8h6.655c8.45 0 15.36 5.76 15.36 12.8s-6.912 12.8-15.36 12.8H259.07c-8.447 0-15.36 5.76-15.36 12.8s6.912 12.8 15.36 12.8h100.353c8.448 0 15.36 5.76 15.36 12.8s-6.9 12.8-15.36 12.8H229.376c-8.448 0-15.36 5.76-15.36 12.8s6.912 12.8 15.36 12.8h107.52c8.448 0 15.36 5.76 15.36 12.8s-6.912 12.8-15.36 12.8H75.775c-8.447 0-15.36-5.76-15.36-12.8s6.912-12.8 15.36-12.8h97.792c8.45 0 15.36-5.76 15.36-12.8s-6.912-12.8-15.36-12.8h-36.863c-8.448 0-15.36-5.76-15.36-12.8s6.912-12.8 15.36-12.8h-.513c8.45 0 15.36-5.76 15.36-12.8s-6.912-12.8-15.36-12.8H19.968c-8.448 0-15.36-5.76-15.36-12.8s6.913-12.8 15.36-12.8h201.216c8.448 0 15.36-5.76 15.36-12.8s-6.912-12.8-15.36-12.8h-23.552c-8.448 0-15.36-5.76-15.36-12.8s6.912-12.8 15.36-12.8h261.12c8.447 0 15.36 5.76 15.36 12.8s-6.912 12.8-15.36 12.8M306.176 215.82c0-7.04-6.912-12.8-15.36-12.8H136.704c-8.448 0-15.36 5.76-15.36 12.8s6.912 12.8 15.36 12.8h154.112c8.448 0 15.36-5.76 15.36-12.8"/></svg>