<svg xmlns="http://www.w3.org/2000/svg" width="149" height="149" xmlns:v="https://vecta.io/nano"><defs><linearGradient id="A" x1="0%" y1="0%" y2="95.386%"><stop offset="0%" stop-color="#072142"/><stop offset="52.417%" stop-color="#8c2b7a"/><stop offset="100%" stop-color="#ff4d5a"/></linearGradient></defs><path fill="url(#A)" fill-rule="evenodd" d="M0 76.983V12.417C0 6.035 6.035 0 12.417 0h14.9c1.37 0 2.483 1.113 2.483 2.483s-1.113 2.483-2.483 2.483h-14.9c-3.62 0-7.45 3.83-7.45 7.45v64.567c0 1.37-1.113 2.483-2.483 2.483S0 78.354 0 76.983h0zM136.583 0H111.75c-1.37 0-2.483 1.113-2.483 2.483s1.113 2.483 2.483 2.483h24.833c3.62 0 7.45 3.83 7.45 7.45v89.4c0 3.62-3.83 7.45-7.45 7.45H12.417c-3.62 0-7.45-3.83-7.45-7.45V89.4h131.617c1.37 0 2.483-1.113 2.483-2.483s-1.113-2.483-2.483-2.483H2.483C1.113 84.433 0 85.546 0 86.917v14.9c0 6.382 6.035 12.417 12.417 12.417h124.167c6.382 0 12.417-6.035 12.417-12.417v-89.4C149 6.035 142.966 0 136.583 0h0zm-67.05 99.333c0 2.74 2.228 4.967 4.967 4.967s4.967-2.228 4.967-4.967-2.228-4.967-4.967-4.967-4.967 2.228-4.967 4.967h0zm32.283 44.7h-2.483v-2.483c0-1.37-1.113-2.483-2.483-2.483s-2.483 1.113-2.483 2.483v2.483H89.4v-2.483c0-1.37-1.113-2.483-2.483-2.483s-2.483 1.113-2.483 2.483v2.483h-4.967v-2.483c0-1.37-1.113-2.483-2.483-2.483S74.5 140.18 74.5 141.55v2.483h-4.967v-2.483c0-1.37-1.113-2.483-2.483-2.483s-2.483 1.113-2.483 2.483v2.483H59.6v-2.483c0-1.37-1.113-2.483-2.483-2.483s-2.483 1.113-2.483 2.483v2.483h-4.967v-2.483c0-1.37-1.113-2.483-2.483-2.483S44.7 140.18 44.7 141.55v2.483h-4.967v-2.483c0-1.37-1.113-2.483-2.483-2.483s-2.483 1.113-2.483 2.483v2.483H29.8v-2.483c0-1.37-1.113-2.483-2.483-2.483s-2.483 1.113-2.483 2.483v2.483h-4.967v-2.483c0-1.37-1.113-2.483-2.483-2.483S14.9 140.18 14.9 141.55v2.483h-2.483c-1.37 0-2.483 1.113-2.483 2.483S11.046 149 12.417 149h89.4c1.37 0 2.483-1.113 2.483-2.483s-1.113-2.483-2.483-2.483h0zm-37.25-12.417v-9.933c0-1.37-1.113-2.483-2.483-2.483s-2.483 1.113-2.483 2.483v9.933c0 1.37 1.113 2.483 2.483 2.483s2.483-1.113 2.483-2.483h0zm22.35 2.483c1.37 0 2.483-1.113 2.483-2.483v-9.933c0-1.37-1.113-2.483-2.483-2.483s-2.483 1.113-2.483 2.483v9.933c0 1.37 1.113 2.483 2.483 2.483h0zm52.15 9.933v2.483c0 1.37-1.113 2.483-2.483 2.483h-19.867c-1.37 0-2.483-1.113-2.483-2.483v-2.483c0-5.478 4.455-9.933 9.933-9.933h4.967c5.478 0 9.933 4.455 9.933 9.933h0zm-4.967 0c0-2.74-2.228-4.967-4.967-4.967h-4.967c-2.74 0-4.967 2.228-4.967 4.967h14.9zM86.917 79.467c1.37 0 2.483-1.113 2.483-2.483v-53.92L99.333 7.17l7.937 12.697H96.85c-1.37 0-2.483 1.113-2.483 2.483s1.113 2.483 2.483 2.483h14.9c.904 0 1.733-.49 2.173-1.28s.412-1.756-.067-2.52L101.44 1.167c-.91-1.453-3.303-1.453-4.212 0L84.81 21.034c-.246.395-.377.85-.377 1.316v54.633c0 1.37 1.113 2.483 2.483 2.483h0zm-49.667 0h14.9c1.37 0 2.483-1.113 2.483-2.483S53.52 74.5 52.15 74.5H39.733v-4.967h2.483c1.37 0 2.483-1.113 2.483-2.483s-1.113-2.483-2.483-2.483h-2.483V59.6h2.483c1.37 0 2.483-1.113 2.483-2.483s-1.113-2.483-2.483-2.483h-2.483v-4.967H52.15c1.37 0 2.483-1.113 2.483-2.483S53.52 44.7 52.15 44.7H39.733v-4.967h2.483c1.37 0 2.483-1.113 2.483-2.483s-1.113-2.483-2.483-2.483h-2.483V29.8h2.483c1.37 0 2.483-1.113 2.483-2.483s-1.113-2.483-2.483-2.483h-2.483v-4.967H52.15c1.37 0 2.483-1.113 2.483-2.483S53.52 14.9 52.15 14.9H39.733V4.967H74.5v72.017c0 1.37 1.113 2.483 2.483 2.483s2.483-1.113 2.483-2.483v-74.5c0-1.37-1.113-2.483-2.483-2.483H37.25c-1.37 0-2.483 1.113-2.483 2.483v74.5c0 1.37 1.113 2.483 2.483 2.483h0zm74.5-49.667c-1.37 0-2.483 1.113-2.483 2.483v44.7c0 1.37 1.113 2.483 2.483 2.483s2.483-1.113 2.483-2.483v-44.7c0-1.37-1.113-2.483-2.483-2.483h0zm-14.9 2.483v44.7c0 1.37 1.113 2.483 2.483 2.483s2.483-1.113 2.483-2.483v-44.7c0-1.37-1.113-2.483-2.483-2.483s-2.483 1.113-2.483 2.483h0z"/></svg>