<svg xmlns="http://www.w3.org/2000/svg" width="60" height="54" fill-rule="nonzero" xmlns:v="https://vecta.io/nano"><path fill="#e44f26" d="M3.124 44.06L.036 9.427h33.93l-3.09 34.628-13.894 3.852z"/><path fill="#f1662a" d="M17 44.963l11.227-3.113 2.642-29.59H17z"/><path d="M17 25.104h-5.62l-.388-4.35H17v-4.248H6.35l1.146 12.846H17zm0 11.032l-.02.005-4.73-1.278-.302-3.387H7.685l.595 6.67 8.7 2.415.02-.005z" fill="#ebebeb"/><path d="M3.193.015H5.35v2.133h1.975V.015h2.16v6.46h-2.16V4.3H5.35v2.163H3.193zm9.13 2.142h-1.9V.015h5.96v2.142h-1.9v4.317h-2.16V2.157zM17.33.015h2.25l1.384 2.27 1.384-2.27h2.25v6.46h-2.15v-3.2L20.964 5.57h-.037L19.44 3.273v3.2h-2.1V.015zm8.343 0h2.16V4.34h3.035v2.135h-5.195V.015z" fill="#010101"/><path d="M16.986 25.104v4.248h5.23l-.493 5.508-4.737 1.28v4.42l8.708-2.413 1.165-13.04h-1.144zm0-8.597v4.248h10.26l.38-4.248z" fill="#fff"/><path fill="#131313" d="M52.605 7.606H49.79l2.93 3.178v1.513h-6.032v-1.77h2.928l-2.928-3.178V5.832h5.92v1.773zm-7.115 0h-2.816l2.928 3.178v1.513H39.57v-1.77h2.928L39.57 7.347V5.832h5.92v1.773zm-7.046.072h-3.04v2.773h3.04v1.845h-5.2V5.832h5.2v1.845z"/><path fill="#1572b6" d="M29.104 49.88l-3.088-34.633h33.93l-3.09 34.628-13.895 3.852z"/><path fill="#33a9dc" d="M42.98 50.783L54.21 47.67l2.64-29.59H42.98z"/><path fill="#fff" d="M42.98 30.627h5.62l.388-4.35h-6.01V22.03h10.65l-.1 1.14-1.044 11.705H42.98z"/><path fill="#ebebeb" d="M43.007 41.658l-.02.005-4.73-1.277-.302-3.388H33.69l.595 6.67 8.7 2.416.02-.005z"/><path fill="#fff" d="M48.24 34.694l-.512 5.69-4.737 1.28v4.42l8.708-2.414.803-8.973z"/><path d="M42.996 22.03v4.248h-10.26l-.38-4.248zm-.016 8.597v4.248H38.3l-.086-.955-.295-3.293z" fill="#ebebeb"/></svg>