<svg xmlns="http://www.w3.org/2000/svg" width="60" height="60" fill-rule="nonzero" xmlns:v="https://vecta.io/nano"><path fill="#f7df1e" d="M0 0h60v60H0z"/><path fill="#000" d="M15.776 50.14l4.592-2.78c.886 1.57 1.692 2.9 3.624 2.9 1.853 0 3.02-.725 3.02-3.544v-19.17h5.638v19.25c0 5.84-3.423 8.498-8.418 8.498-4.51 0-7.13-2.336-8.458-5.155m19.938-.604l4.59-2.658c1.21 1.974 2.78 3.424 5.558 3.424 2.336 0 3.826-1.168 3.826-2.78 0-1.933-1.53-2.618-4.108-3.745l-1.41-.605c-4.068-1.732-6.767-3.906-6.767-8.498 0-4.23 3.222-7.45 8.257-7.45 3.585 0 6.162 1.25 8.015 4.51l-4.4 2.82c-.967-1.732-2.014-2.416-3.624-2.416-1.65 0-2.7 1.047-2.7 2.416 0 1.692 1.047 2.376 3.464 3.424l1.4.604c4.793 2.054 7.49 4.148 7.49 8.86 0 5.075-3.987 7.854-9.344 7.854-5.236 0-8.62-2.497-10.27-5.76"/></svg>