<svg xmlns="http://www.w3.org/2000/svg" width="1385" height="1385" fill="#fffffa" fill-opacity=".05" fill-rule="evenodd" xmlns:v="https://vecta.io/nano"><path d="M692.4 1384.8c-93.293 0-184.016-18.366-269.648-54.588-82.5-34.887-156.494-84.752-219.95-148.21-63.452-63.45-113.32-137.456-148.216-219.96C18.366 876.415 0 785.694 0 692.4s18.365-184.013 54.586-269.645c34.894-82.5 84.76-156.505 148.215-219.958S340.256 89.48 422.757 54.584C508.394 18.365 599.115 0 692.4 0s184.01 18.365 269.644 54.586c82.497 34.893 156.5 84.758 219.955 148.21s113.325 137.466 148.218 219.97c36.218 85.62 54.582 176.34 54.582 269.633s-18.366 184.013-54.587 269.648c-34.886 82.487-84.75 156.488-148.206 219.947s-137.463 113.325-219.962 148.22C876.41 1366.435 785.69 1384.8 692.4 1384.8"/><path d="M692.4 1314.8c-83.872 0-165.42-16.505-242.378-49.058-74.146-31.358-140.672-76.185-197.723-133.236-57.046-57.045-101.877-123.572-133.244-197.732C86.504 857.82 70 776.274 70 692.4s16.504-165.42 49.055-242.376c31.366-74.157 76.196-140.683 133.242-197.73s123.572-101.874 197.73-133.24C526.987 86.504 608.533 70 692.4 70s165.416 16.505 242.375 49.056c74.152 31.363 140.678 76.19 197.727 133.24s101.88 123.58 133.245 197.74c32.548 76.947 49.052 158.492 49.052 242.367s-16.505 165.42-49.057 242.378c-31.358 74.143-76.184 140.667-133.235 197.72-57.05 57.05-123.576 101.88-197.732 133.244-76.958 32.55-158.505 49.056-242.375 49.056"/><path d="M692.4 1244.8c-74.452 0-146.825-14.645-215.108-43.527-65.804-27.83-124.85-67.62-175.496-118.265s-90.433-109.687-118.27-175.503C154.643 839.225 140 766.853 140 692.4s14.643-146.825 43.526-215.107c27.836-65.812 67.627-124.86 118.27-175.5 50.638-50.64 109.685-90.432 175.5-118.268C545.58 154.645 617.95 140 692.4 140s146.823 14.645 215.106 43.526c65.808 27.834 124.855 67.625 175.5 118.267s90.436 109.695 118.27 175.508c28.88 68.272 43.524 140.644 43.524 215.1s-14.644 146.826-43.527 215.108c-27.83 65.802-67.62 124.85-118.264 175.495s-109.687 90.433-175.502 118.27c-68.283 28.88-140.655 43.526-215.106 43.526"/><path d="M692.4 1174.8c-65.034 0-128.23-12.784-187.84-37.997-57.463-24.303-109.03-59.057-153.267-103.293s-78.99-95.803-103.298-153.273C222.784 820.63 210 757.433 210 692.4s12.784-128.23 37.996-187.838c24.307-57.468 59.06-109.036 103.296-153.272s95.802-78.988 153.272-103.295C564.172 222.783 627.37 210 692.4 210s128.23 12.783 187.837 37.996c57.467 24.306 109.034 59.06 153.27 103.295s78.992 95.81 103.296 153.277c25.212 59.6 37.995 122.798 37.995 187.833s-12.784 128.23-37.997 187.837c-24.302 57.464-59.056 109.032-103.293 153.27-44.233 44.233-95.8 78.987-153.272 103.296-59.607 25.212-122.804 37.996-187.837 37.996"/><path d="M692.4 1104.8c-55.613 0-109.636-10.923-160.568-32.467-49.122-20.775-93.212-50.492-131.042-88.32s-67.545-81.92-88.325-131.044C290.922 802.036 280 748.013 280 692.4s10.922-109.637 32.465-160.57c20.78-49.125 50.496-93.215 88.325-131.043s81.918-67.545 131.043-88.323C582.765 290.924 636.788 280 692.4 280s109.636 10.924 160.568 32.467c49.124 20.777 93.213 50.493 131.043 88.322s67.546 81.92 88.323 131.045c21.543 50.93 32.465 104.953 32.465 160.567s-10.922 109.635-32.466 160.568c-20.776 49.122-50.493 93.212-88.322 131.042s-81.918 67.544-131.044 88.323c-50.93 21.543-104.955 32.466-160.567 32.466"/><path d="M692.4 1034.8c-46.192 0-91.04-9.063-133.3-26.937-40.78-17.248-77.39-41.926-108.814-73.35s-56.102-68.033-73.35-108.815C359.062 783.442 350 738.593 350 692.4s9.062-91.04 26.936-133.3c17.25-40.78 41.928-77.393 73.35-108.815s68.033-56.1 108.814-73.35C601.36 359.063 646.207 350 692.4 350s91.04 9.063 133.3 26.937c40.78 17.25 77.39 41.926 108.814 73.35s56.102 68.034 73.35 108.815c17.874 42.258 26.936 87.105 26.936 133.3s-9.062 91.04-26.936 133.298c-17.248 40.782-41.927 77.392-73.35 108.815s-68.033 56.1-108.814 73.35c-42.258 17.874-87.106 26.937-133.3 26.937"/></svg>