<svg xmlns="http://www.w3.org/2000/svg" width="545" height="545" fill-rule="evenodd" xmlns:v="https://vecta.io/nano"><path fill="#fffffa" d="M544.8 272.4c0 150.442-121.957 272.4-272.4 272.4S0 422.842 0 272.4 121.958 0 272.4 0s272.4 121.958 272.4 272.4"/><path fill="#e6e6e6" fill-opacity=".3" d="M199.374 191.592c0 32.86-26.64 59.5-59.5 59.5s-59.5-26.64-59.5-59.5 26.64-59.5 59.5-59.5 59.5 26.64 59.5 59.5m97.58-95c0 21.03-17.05 38.08-38.08 38.08s-38.08-17.05-38.08-38.08 17.05-38.08 38.08-38.08 38.08 17.05 38.08 38.08m-3.71 105c0 13.46-10.91 24.37-24.37 24.37s-24.37-10.91-24.37-24.37 10.91-24.37 24.37-24.37 24.37 10.91 24.37 24.37"/></svg>