<svg xmlns="http://www.w3.org/2000/svg" xmlns:xlink="http://www.w3.org/1999/xlink" width="60" height="60" xmlns:v="https://vecta.io/nano"><defs><path id="A" d="M21.15 16.875c3.775 0 6.67.687 8.68 2.063s3.02 3.525 3.02 6.45c0 1.525-.27 2.83-.806 3.92s-1.32 1.975-2.344 2.663-2.275 1.194-3.75 1.52-3.162.488-5.062.488h-2.363v9.15H13.8V17.513c1.1-.25 2.32-.42 3.656-.506l3.694-.13zm.338 4.087l-2.963.113v8.85h2.288c2.275 0 4.025-.32 5.25-.956s1.837-1.844 1.837-3.62c0-.85-.162-1.562-.487-2.138a3.5 3.5 0 0 0-1.35-1.35c-.575-.325-1.256-.556-2.044-.694s-1.63-.206-2.53-.206zm19.425 18.9c1.2 0 2.075-.144 2.625-.43s.825-.78.825-1.48c0-.65-.294-1.187-.88-1.613s-1.556-.887-2.906-1.387a22.96 22.96 0 0 1-2.269-.956c-.688-.338-1.28-.73-1.78-1.18s-.894-.994-1.18-1.63-.43-1.42-.43-2.344c0-1.8.662-3.22 1.987-4.256s3.125-1.556 5.4-1.556c1.15 0 2.25.106 3.3.32s1.837.42 2.362.62l-.825 3.675c-.5-.225-1.137-.43-1.913-.62s-1.675-.28-2.7-.28c-.925 0-1.675.156-2.25.47s-.862.794-.862 1.444c0 .325.056.612.17.863s.306.48.58.694.637.425 1.087.637 1 .43 1.65.656c1.075.4 1.987.794 2.738 1.18s1.37.825 1.856 1.313a4.49 4.49 0 0 1 1.069 1.669c.225.625.337 1.375.337 2.25 0 1.875-.694 3.294-2.08 4.256s-3.37 1.444-5.944 1.444c-1.725 0-3.112-.144-4.163-.43l-2.212-.694.788-3.787c.675.275 1.48.537 2.42.787s2.006.375 3.206.375z"/></defs><g fill-rule="evenodd"><path fill="#43c9ff" fill-rule="nonzero" d="M3.75 3.75v52.5h52.5V3.75H3.75zM0 0h60v60H0V0z"/><mask id="B" fill="#fff"><use xlink:href="#A"/></mask><use fill="#fff" xlink:href="#A"/><path fill="#43c9ff" mask="url(#B)" d="M0 0h60v60H0z"/></g></svg>