<svg xmlns="http://www.w3.org/2000/svg" width="60" height="46" xmlns:v="https://vecta.io/nano"><path fill="#cf649a" d="M51.65 26.658c-2.094.012-3.906.515-5.427 1.263-.56-1.11-1.123-2.082-1.216-2.807-.105-.842-.234-1.357-.105-2.363s.713-2.433.713-2.55c-.012-.105-.13-.62-1.333-.632s-2.246.234-2.363.55-.35 1.04-.503 1.79c-.21 1.1-2.41 4.994-3.66 7.04-.41-.795-.76-1.497-.83-2.058-.105-.842-.234-1.357-.105-2.363s.713-2.433.713-2.55c-.012-.105-.13-.62-1.333-.632s-2.246.234-2.363.55-.246 1.064-.503 1.79c-.246.725-3.17 7.228-3.93 8.924l-.97 2.023c-.246.468-.012.035-.035.082l-.327.62v.012c-.164.292-.34.573-.42.573-.058 0-.175-.784.023-1.86.433-2.257 1.485-5.778 1.474-5.906 0-.058.2-.678-.678-.994-.854-.316-1.158.21-1.228.21s-.13.187-.13.187.947-3.965-1.813-3.965c-1.73 0-4.117 1.883-5.298 3.602l-5.965 3.263-.13-.14c-3.345-3.567-9.532-6.094-9.275-10.89.094-1.743.702-6.34 11.883-11.906 9.158-4.56 16.49-3.3 17.766-.526 1.813 3.977-3.918 11.368-13.44 12.433-3.626.41-5.532-.994-6.012-1.52-.503-.55-.573-.573-.76-.468-.304.164-.117.655 0 .947.28.737 1.45 2.047 3.44 2.702 1.743.573 6 .89 11.146-1.1 5.766-2.234 10.27-8.433 8.947-13.614C36.257 1.103 27.51-.628 19.24 2.307 14.316 4.062 8.982 6.8 5.146 10.39.585 14.646-.14 18.366.164 19.9c1.064 5.51 8.655 9.1 11.696 11.754l-.42.234c-1.52.75-7.3 3.778-8.76 6.982-1.637 3.626.257 6.234 1.52 6.585 3.906 1.088 7.906-.865 10.07-4.082 2.152-3.216 1.895-7.392.9-9.298l-.035-.07 1.193-.702c.772-.456 1.532-.877 2.2-1.24-.374 1.018-.643 2.222-.784 3.977-.164 2.058.678 4.725 1.79 5.778.49.456 1.076.468 1.44.468 1.287 0 1.87-1.064 2.515-2.34.795-1.556 1.497-3.357 1.497-3.357s-.877 4.877 1.52 4.877c.877 0 1.754-1.135 2.152-1.72v.012s.023-.035.07-.117c.094-.14.14-.222.14-.222v-.023c.35-.608 1.135-2 2.304-4.304 1.51-2.97 2.96-6.7 2.96-6.7s.14.912.573 2.41c.257.89.82 1.86 1.25 2.807l-.56.772.012.012a33.33 33.33 0 0 1-.924 1.17c-1.193 1.427-2.62 3.053-2.807 3.52-.222.55-.175.96.257 1.287.316.234.877.28 1.474.234 1.076-.07 1.825-.34 2.2-.503.585-.21 1.25-.526 1.895-.994 1.17-.865 1.883-2.094 1.813-3.73-.035-.9-.327-1.79-.7-2.632l.316-.468c1.848-2.702 3.275-5.673 3.275-5.673s.14.912.573 2.41c.222.76.667 1.59 1.064 2.41-1.73 1.415-2.82 3.053-3.193 4.13-.7 1.988-.152 2.89.865 3.1.456.094 1.11-.117 1.602-.327.608-.2 1.345-.538 2.023-1.04 1.17-.865 2.292-2.07 2.234-3.696-.035-.75-.234-1.485-.503-2.187 1.474-.608 3.38-.96 5.8-.667 5.205.608 6.234 3.86 6.035 5.216s-1.287 2.105-1.65 2.34c-.363.222-.48.304-.444.468.047.246.21.234.526.187.433-.07 2.737-1.11 2.83-3.614.14-3.216-2.912-6.725-8.327-6.7zM11.51 40.2c-1.72 1.883-4.14 2.596-5.17 1.988-1.11-.643-.678-3.415 1.44-5.415 1.287-1.216 2.96-2.34 4.058-3.03l1.064-.643c.07-.047.117-.07.117-.07.082-.047.175-.105.27-.164.784 2.854.035 5.357-1.778 7.333zm12.573-8.55c-.596 1.462-1.86 5.216-2.62 5.006-.655-.175-1.053-3.018-.13-5.825.468-1.415 1.462-3.1 2.047-3.754.947-1.053 1.977-1.404 2.234-.97.304.56-1.158 4.632-1.532 5.544zm10.374 4.96c-.257.13-.49.222-.596.152-.082-.047.105-.222.105-.222s1.298-1.392 1.813-2.035l1.018-1.298v.14c0 1.684-1.614 2.807-2.34 3.263zm8-1.825c-.187-.14-.164-.573.468-1.93.246-.538.807-1.44 1.778-2.292.117.35.187.7.175 1.006-.012 2.105-1.51 2.89-2.42 3.216z"/></svg>