<svg xmlns="http://www.w3.org/2000/svg" width="1301" height="952" xmlns:v="https://vecta.io/nano"><path d="M1043 63.5a2.5 2.5 0 1 1-5 0 2.5 2.5 0 1 1 5 0m-699-20a2.5 2.5 0 1 1-5 0 2.5 2.5 0 1 1 5 0m-145 529a2.5 2.5 0 1 1-5 0 2.5 2.5 0 1 1 5 0m42-181a2.5 2.5 0 1 1-5 0 2.5 2.5 0 1 1 5 0m664-299a2.5 2.5 0 1 1-5 0 2.5 2.5 0 1 1 5 0m-224-80a2.5 2.5 0 1 1-5 0 2.5 2.5 0 1 1 5 0m-255 201a2.5 2.5 0 1 1-5 0 2.5 2.5 0 1 1 5 0m49-150a2.5 2.5 0 1 1-5 0 2.5 2.5 0 1 1 5 0m400-61a2.5 2.5 0 1 1-5 0 2.5 2.5 0 1 1 5 0M597.063 159.056a2.5 2.5 0 0 1 1.881-2.993 2.5 2.5 0 0 1 2.993 1.881 2.5 2.5 0 0 1-1.881 2.993 2.5 2.5 0 0 1-2.993-1.881m421 90a2.5 2.5 0 0 1 1.881-2.993 2.5 2.5 0 0 1 2.993 1.88 2.5 2.5 0 0 1-1.881 2.993 2.5 2.5 0 0 1-2.993-1.881m-703 211a2.5 2.5 0 0 1 1.881-2.993 2.5 2.5 0 0 1 2.993 1.88 2.5 2.5 0 0 1-1.881 2.993 2.5 2.5 0 0 1-2.993-1.881m126 203a2.5 2.5 0 0 1 1.881-2.993 2.5 2.5 0 0 1 2.992 1.881 2.5 2.5 0 0 1-1.881 2.993 2.5 2.5 0 0 1-2.992-1.881m-83 130a2.5 2.5 0 0 1 1.881-2.993 2.5 2.5 0 0 1 2.993 1.88 2.5 2.5 0 0 1-1.881 2.993 2.5 2.5 0 0 1-2.993-1.881m320-12a2.5 2.5 0 0 1 1.881-2.993 2.5 2.5 0 0 1 2.993 1.88 2.5 2.5 0 0 1-1.881 2.993 2.5 2.5 0 0 1-2.993-1.881m171-70a2.5 2.5 0 0 1 1.881-2.993 2.5 2.5 0 0 1 2.993 1.88 2.5 2.5 0 0 1-1.881 2.993 2.5 2.5 0 0 1-2.993-1.881m141 169a2.5 2.5 0 0 1 1.881-2.993 2.5 2.5 0 0 1 2.993 1.88 2.5 2.5 0 0 1-1.881 2.993 2.5 2.5 0 0 1-2.993-1.881m183-392a2.5 2.5 0 0 1 1.881-2.993 2.5 2.5 0 0 1 2.993 1.88 2.5 2.5 0 0 1-1.881 2.993 2.5 2.5 0 0 1-2.993-1.88m123-184a2.5 2.5 0 0 1 1.881-2.993 2.5 2.5 0 0 1 2.993 1.88 2.5 2.5 0 0 1-1.881 2.993 2.5 2.5 0 0 1-2.993-1.881M807 816.5a2.5 2.5 0 1 1-5 0 2.5 2.5 0 1 1 5 0m-74 133a2.5 2.5 0 1 1-5 0 2.5 2.5 0 1 1 5 0m244-257a2.5 2.5 0 1 1-5 0 2.5 2.5 0 1 1 5 0m-744 16a2.5 2.5 0 1 1-5 0 2.5 2.5 0 1 1 5 0m972-304a2.5 2.5 0 1 1-5 0 2.5 2.5 0 1 1 5 0m-708 484a2.5 2.5 0 1 1-5 0 2.5 2.5 0 1 1 5 0m-492-30a2.5 2.5 0 1 1-5 0 2.5 2.5 0 1 1 5 0m60-640a2.5 2.5 0 1 1-5 0 2.5 2.5 0 1 1 5 0m1118 617a2.5 2.5 0 1 1-5 0 2.5 2.5 0 1 1 5 0m-87-208a2.5 2.5 0 1 1-5 0 2.5 2.5 0 1 1 5 0m44-387a2.5 2.5 0 1 1-5 0 2.5 2.5 0 1 1 5 0m-522-142a2.5 2.5 0 1 1-5 0 2.5 2.5 0 1 1 5 0" fill="#fff" fill-rule="evenodd"/></svg>