<svg xmlns="http://www.w3.org/2000/svg" width="151" height="151" xmlns:v="https://vecta.io/nano"><defs><linearGradient id="A" x1="0%" y1="0%" y2="95.386%"><stop offset="0%" stop-color="#072142"/><stop offset="52.417%" stop-color="#8c2b7a"/><stop offset="100%" stop-color="#ff4d5a"/></linearGradient></defs><path fill="url(#A)" fill-rule="evenodd" d="M140.933 55.367v10.067h7.55c1.392 0 2.517 1.127 2.517 2.517s-1.125 2.517-2.517 2.517h-7.55v10.067h7.55c1.392 0 2.517 1.127 2.517 2.517s-1.125 2.517-2.517 2.517h-7.55v10.067h7.55c1.392 0 2.517 1.127 2.517 2.517s-1.125 2.517-2.517 2.517h-7.55v10.067h7.55c1.392 0 2.517 1.127 2.517 2.517s-1.125 2.517-2.517 2.517h-7.55v12.583c0 6.468-6.115 12.583-12.583 12.583h-12.583v7.55c0 1.39-1.125 2.517-2.517 2.517s-2.517-1.127-2.517-2.517v-7.55h-10.067v7.55c0 1.39-1.125 2.517-2.517 2.517s-2.517-1.127-2.517-2.517v-7.55H85.567v7.55c0 1.39-1.125 2.517-2.517 2.517s-2.517-1.127-2.517-2.517v-7.55H70.467v7.55c0 1.39-1.125 2.517-2.517 2.517s-2.517-1.127-2.517-2.517v-7.55H55.367v7.55c0 1.39-1.125 2.517-2.517 2.517s-2.517-1.127-2.517-2.517v-7.55H40.267v7.55c0 1.39-1.125 2.517-2.517 2.517s-2.517-1.127-2.517-2.517v-7.55H22.65c-6.468 0-12.583-6.115-12.583-12.583 0-1.39 1.125-2.517 2.517-2.517s2.517 1.127 2.517 2.517c0 3.67 3.88 7.55 7.55 7.55h105.7c3.67 0 7.55-3.88 7.55-7.55V22.65c0-3.67-3.88-7.55-7.55-7.55H22.65c-3.67 0-7.55 3.88-7.55 7.55v95.633c0 1.39-1.125 2.517-2.517 2.517s-2.517-1.127-2.517-2.517v-2.517h-7.55C1.125 115.767 0 114.64 0 113.25s1.125-2.517 2.517-2.517h7.55v-10.067h-7.55C1.125 100.667 0 99.54 0 98.15s1.125-2.517 2.517-2.517h7.55V85.567h-7.55C1.125 85.567 0 84.44 0 83.05s1.125-2.517 2.517-2.517h7.55V70.467h-7.55C1.125 70.467 0 69.34 0 67.95s1.125-2.517 2.517-2.517h7.55V55.367h-7.55C1.125 55.367 0 54.24 0 52.85s1.125-2.517 2.517-2.517h7.55V40.267h-7.55C1.125 40.267 0 39.14 0 37.75s1.125-2.517 2.517-2.517h7.55V22.65c0-6.468 6.115-12.583 12.583-12.583h12.583v-7.55C35.233 1.127 36.358 0 37.75 0s2.517 1.127 2.517 2.517v7.55h10.067v-7.55C50.333 1.127 51.458 0 52.85 0s2.517 1.127 2.517 2.517v7.55h10.067v-7.55C65.433 1.127 66.558 0 67.95 0s2.517 1.127 2.517 2.517v7.55h10.067v-7.55C80.533 1.127 81.658 0 83.05 0s2.517 1.127 2.517 2.517v7.55h10.067v-7.55C95.633 1.127 96.758 0 98.15 0s2.517 1.127 2.517 2.517v7.55h10.067v-7.55c0-1.39 1.125-2.517 2.517-2.517s2.517 1.127 2.517 2.517v7.55h12.583c6.468 0 12.583 6.115 12.583 12.583v12.583h7.55c1.392 0 2.517 1.127 2.517 2.517s-1.125 2.517-2.517 2.517h-7.55v10.067h7.55c1.392 0 2.517 1.127 2.517 2.517s-1.125 2.517-2.517 2.517h-7.55zM45.3 72.983c0-1.13-1.39-2.517-2.517-2.517-3.88 0-7.55-3.67-7.55-7.55V42.783c0-3.88 3.67-7.55 7.55-7.55h65.433c3.88 0 7.55 3.67 7.55 7.55V83.05c0 3.88-3.67 7.55-7.55 7.55H100.2c-1.042 2.924-3.808 5.033-7.084 5.033s-6.043-2.11-7.084-5.033H67.95c-3.88 0-7.55-3.67-7.55-7.55v-8.016c-2.922-1.042-5.033-3.808-5.033-7.084a7.56 7.56 0 0 1 7.55-7.55 7.56 7.56 0 0 1 7.55 7.55c0 3.277-2.11 6.043-5.033 7.087v8.013c0 1.13 1.39 2.517 2.517 2.517h18.082c.758-2.132 2.434-3.8 4.568-4.57v-16.03c-2.922-1.042-5.033-3.808-5.033-7.084a7.56 7.56 0 0 1 7.55-7.55 7.56 7.56 0 0 1 7.55 7.55c0 3.277-2.11 6.043-5.033 7.087v16.026c2.134.76 3.8 2.44 4.568 4.57h8.016c1.127 0 2.517-1.387 2.517-2.517V42.783c0-1.13-1.39-2.517-2.517-2.517H42.783c-1.127 0-2.517 1.387-2.517 2.517v20.133c0 1.13 1.39 2.517 2.517 2.517 3.88 0 7.55 3.67 7.55 7.55s-3.67 7.55-7.55 7.55c-1.127 0-2.517 1.387-2.517 2.517v25.167c0 1.13 1.39 2.517 2.517 2.517h5.033c1.127 0 2.517-1.387 2.517-2.517 0-3.88 3.667-7.55 7.547-7.55h10.07c3.88 0 7.55 3.67 7.55 7.55 0 1.13 1.39 2.517 2.517 2.517h23.116c1.042-2.924 3.808-5.033 7.084-5.033a7.56 7.56 0 0 1 7.55 7.55 7.56 7.56 0 0 1-7.55 7.55c-3.277 0-6.043-2.11-7.084-5.033H78.017c-3.88 0-7.55-3.67-7.55-7.55 0-1.13-1.39-2.517-2.517-2.517H57.88c-1.127 0-2.514 1.387-2.514 2.517 0 3.88-3.67 7.55-7.55 7.55h-5.033c-3.88 0-7.55-3.67-7.55-7.55V83.05c0-3.88 3.67-7.55 7.55-7.55 1.127 0 2.517-1.387 2.517-2.517h0zm60.4 40.267a2.52 2.52 0 0 0 2.517 2.517 2.52 2.52 0 0 0 2.517-2.517 2.52 2.52 0 0 0-2.517-2.517 2.52 2.52 0 0 0-2.517 2.517h0zm-45.3-45.3a2.52 2.52 0 0 0 2.517 2.517 2.52 2.52 0 0 0 2.517-2.517 2.52 2.52 0 0 0-2.517-2.517A2.52 2.52 0 0 0 60.4 67.95h0zm30.2-10.067a2.52 2.52 0 0 0 2.517 2.517 2.52 2.52 0 0 0 2.517-2.517 2.52 2.52 0 0 0-2.517-2.517 2.52 2.52 0 0 0-2.517 2.517h0zm5.033 30.2a2.52 2.52 0 0 0-2.517-2.517 2.52 2.52 0 0 0-2.517 2.517 2.52 2.52 0 0 0 2.517 2.517 2.52 2.52 0 0 0 2.517-2.517h0zm27.76 37.75a2.52 2.52 0 0 0 2.517-2.517 2.52 2.52 0 0 0-2.517-2.517h-.028c-1.387 0-2.502 1.127-2.502 2.517s1.138 2.517 2.53 2.517h0zm-95.633 0a2.52 2.52 0 0 0 2.517-2.517 2.52 2.52 0 0 0-2.517-2.517h-.028c-1.387 0-2.502 1.127-2.502 2.517a2.53 2.53 0 0 0 2.529 2.517h0zM123.392 30.2a2.52 2.52 0 0 0 2.517-2.517 2.52 2.52 0 0 0-2.517-2.517h-.028c-1.387 0-2.502 1.127-2.502 2.517S122 30.2 123.392 30.2h0zm-95.633 0a2.52 2.52 0 0 0 2.517-2.517 2.52 2.52 0 0 0-2.517-2.517h-.028c-1.387 0-2.502 1.127-2.502 2.517a2.53 2.53 0 0 0 2.529 2.517h0z"/></svg>