<svg xmlns="http://www.w3.org/2000/svg" width="60" height="60" xmlns:v="https://vecta.io/nano"><path fill="#464342" d="M4.248 29.883c0 10.147 5.897 18.917 14.448 23.072L6.467 19.45a25.54 25.54 0 0 0-2.22 10.433zM47.2 28.59c0-3.168-1.138-5.362-2.114-7.07-1.3-2.112-2.518-3.9-2.518-6.012 0-2.357 1.787-4.55 4.305-4.55.114 0 .22.014.332.02a25.54 25.54 0 0 0-17.312-6.73c-8.956 0-16.836 4.595-21.42 11.555l1.65.03c2.68 0 6.832-.325 6.832-.325 1.382-.08 1.545 1.948.164 2.112 0 0-1.39.163-2.934.244l9.336 27.768 5.6-16.826-3.994-10.943c-1.38-.08-2.688-.244-2.688-.244-1.38-.08-1.22-2.193.162-2.112 0 0 4.234.325 6.753.325 2.68 0 6.832-.325 6.832-.325 1.383-.08 1.545 1.948.164 2.112 0 0-1.392.163-2.934.244L42.68 45.42l2.557-8.545c1.108-3.546 1.952-6.093 1.952-8.287zm-16.857 3.536l-7.692 22.35c2.297.675 4.725 1.044 7.242 1.044a25.61 25.61 0 0 0 8.513-1.453 2.25 2.25 0 0 1-.182-.353l-7.88-21.59zM52.38 17.583a19.67 19.67 0 0 1 .173 2.636c0 2.6-.486 5.526-1.95 9.182l-7.83 22.64c7.62-4.444 12.748-12.7 12.748-22.16 0-4.457-1.138-8.648-3.14-12.3zM29.884 0C13.406 0 0 13.405 0 29.883s13.406 29.884 29.884 29.884S59.77 46.362 59.77 29.883 46.36 0 29.884 0zm0 58.398c-15.722 0-28.514-12.792-28.514-28.515S14.16 1.37 29.884 1.37s28.512 12.79 28.512 28.513-12.79 28.515-28.512 28.515z"/></svg>